<svg width="65" height="65" viewBox="0 0 65 65" fill="none" xmlns="http://www.w3.org/2000/svg">
<path d="M8.838 4.081C6.046 5.737 0.548003 12.049 0.494003 13.705V16.455C0.494003 19.925 3.744 22.989 6.692 22.989C10.234 22.989 13.194 20.051 13.194 16.563C13.194 20.051 16.036 22.989 19.588 22.989C23.13 22.989 25.89 20.051 25.89 16.563C25.89 20.051 28.922 22.989 32.464 22.989H32.528C36.08 22.989 39.11 20.051 39.11 16.563C39.11 20.051 41.872 22.989 45.414 22.989C48.956 22.989 51.808 20.051 51.808 16.563C51.808 20.051 54.758 22.989 58.298 22.989C61.256 22.989 64.506 19.925 64.506 16.455V13.705C64.442 12.049 58.954 5.737 56.152 4.081C47.474 3.769 41.464 3.715 32.506 3.715C23.538 3.725 11.32 3.861 8.85 4.081H8.838ZM25.848 21.349C25.507 21.9355 25.0863 22.472 24.598 22.943V22.953C23.2068 24.3078 21.3419 25.0663 19.4 25.067C17.455 25.0706 15.587 24.3066 14.202 22.941C13.7276 22.4775 13.3233 21.9472 13.002 21.367C12.668 21.961 12.202 22.471 11.712 22.941C10.3248 24.3033 8.45829 25.0667 6.514 25.067H6.504C6.26485 25.0573 6.02897 25.008 5.806 24.921C5.56286 27.5395 5.41343 30.1658 5.358 32.795V32.805C5.348 33.859 5.348 34.711 5.336 35.909C5.4 42.139 4.722 56.087 8.088 59.515C13.296 60.723 22.88 61.275 32.482 61.285H32.492C42.106 61.275 51.678 60.723 56.886 59.515C60.252 56.089 59.574 42.139 59.638 35.909C59.628 34.711 59.628 33.859 59.616 32.805V32.795C59.5656 30.1656 59.4162 27.5391 59.168 24.921C58.9453 25.009 58.7093 25.0584 58.47 25.067H58.46C56.5157 25.0667 54.6492 24.3033 53.262 22.941H53.272C52.782 22.471 52.314 21.963 51.982 21.367H51.972C51.6537 21.9466 51.2528 22.4768 50.782 22.941C49.3946 24.3029 47.5281 25.066 45.584 25.066C43.6399 25.066 41.7734 24.3029 40.386 22.941C39.9052 22.4757 39.4912 21.946 39.156 21.367L39.134 21.335C38.79 21.951 38.374 22.481 37.904 22.941C36.5168 24.3033 34.6503 25.0667 32.706 25.067H32.696C32.634 25.067 32.56 25.067 32.488 25.057C32.416 25.067 32.342 25.067 32.27 25.067H32.26C30.3188 25.069 28.4552 24.305 27.074 22.941C26.5934 22.4786 26.183 21.9483 25.856 21.367L25.834 21.335L25.848 21.349ZM20.504 28.257C22.618 28.267 24.494 28.257 26.826 30.799C28.658 30.613 30.576 30.519 32.492 30.519C34.408 30.519 36.326 30.613 38.158 30.799C40.492 28.257 42.366 28.257 44.48 28.257H44.49C45.49 28.257 49.49 28.257 52.272 36.081L55.262 46.819C57.48 54.809 54.552 55.009 50.908 55.009C45.492 54.809 42.492 50.873 42.492 46.935C39.492 47.437 35.99 47.677 32.492 47.677C28.994 47.677 25.492 47.437 22.502 46.935C22.502 50.873 19.502 54.809 14.086 55.009C10.43 54.999 7.502 54.809 9.72 46.819L12.71 36.081C15.502 28.257 19.502 28.257 20.502 28.257H20.504ZM32.494 34.413C32.484 34.413 26.796 39.653 25.766 41.507L29.494 41.361V44.611C29.494 44.769 30.996 44.705 32.494 44.633C33.992 44.705 35.484 44.769 35.484 44.611V41.361L39.222 41.507C38.192 39.653 32.494 34.413 32.494 34.413Z" fill="#221111"/>
</svg>
