<svg width="65" height="64" viewBox="0 0 65 64" fill="none" xmlns="http://www.w3.org/2000/svg">
<path d="M0.5 4.584C0.5 2.052 2.604 0 5.2 0H59.8C62.396 0 64.5 2.052 64.5 4.584V59.416C64.5 61.948 62.396 64 59.8 64H5.2C2.604 64 0.5 61.948 0.5 59.416V4.584ZM20.272 53.576V24.676H10.668V53.576H20.272ZM15.472 20.728C18.82 20.728 20.904 18.512 20.904 15.736C20.844 12.9 18.824 10.744 15.536 10.744C12.248 10.744 10.1 12.904 10.1 15.736C10.1 18.512 12.184 20.728 15.408 20.728H15.472ZM35.104 53.576V37.436C35.104 36.572 35.168 35.708 35.424 35.092C36.116 33.368 37.696 31.58 40.352 31.58C43.828 31.58 45.216 34.228 45.216 38.116V53.576H54.82V37C54.82 28.12 50.084 23.992 43.764 23.992C38.668 23.992 36.384 26.792 35.104 28.764V28.864H35.04C35.0612 28.8306 35.0826 28.7973 35.104 28.764V24.676H25.504C25.624 27.388 25.504 53.576 25.504 53.576H35.104Z" fill="#221111"/>
</svg>
