<svg width="65" height="65" viewBox="0 0 65 65" fill="none" xmlns="http://www.w3.org/2000/svg">
<path d="M58.506 0.5H6.506C3.206 0.5 0.505997 3.2 0.505997 6.5V58.5C0.505997 61.8 3.206 64.5 6.506 64.5H58.506C61.806 64.5 64.506 61.8 64.506 58.5V6.5C64.506 3.2 61.806 0.5 58.506 0.5ZM11.506 44.5H9.506L8.506 38.5L9.506 32.5H11.506L12.506 38.5L11.506 44.5ZM19.506 44.5H17.506L16.506 36.5L17.506 28.5H19.506L20.506 36.5L19.506 44.5ZM27.506 44.5H25.506L24.506 32.5L25.506 20.5H27.506L28.506 32.5L27.506 44.5ZM52.082 44.5L33.246 44.488C33.0478 44.4651 32.8644 44.3717 32.7293 44.2248C32.5942 44.078 32.5164 43.8874 32.51 43.688V22.112C32.51 21.712 32.646 21.512 33.158 21.312C34.8929 20.6378 36.7608 20.3763 38.6141 20.5483C40.4674 20.7204 42.2553 21.3211 43.8364 22.3032C45.4175 23.2852 46.7485 24.6216 47.7242 26.2067C48.6999 27.7917 49.2934 29.582 49.458 31.436C50.4917 31.0047 51.616 30.8352 52.731 30.9427C53.8459 31.0502 54.9171 31.4313 55.8494 32.0522C56.7817 32.6731 57.5463 33.5145 58.0753 34.5019C58.6044 35.4892 58.8814 36.5919 58.882 37.712C58.882 41.464 55.834 44.5 52.082 44.5Z" fill="#221111"/>
</svg>
