<svg width="65" height="65" viewBox="0 0 65 65" fill="none" xmlns="http://www.w3.org/2000/svg">
<path d="M53.8393 43C53.8393 42.3889 53.5338 42.0139 52.9227 41.875C51.0616 41.4861 49.4227 40.6806 48.006 39.4583C46.5893 38.2361 45.4782 36.7222 44.6727 34.9167C44.4782 34.5278 44.381 34.1806 44.381 33.875C44.381 33.4583 44.6518 33.0972 45.1935 32.7917C45.7352 32.4861 46.3254 32.25 46.9643 32.0833C47.6032 31.9167 48.1935 31.6319 48.7352 31.2292C49.2768 30.8264 49.5477 30.3194 49.5477 29.7083C49.5477 29.1806 49.2907 28.7431 48.7768 28.3958C48.2629 28.0486 47.7282 27.875 47.1727 27.875C46.8671 27.875 46.4366 27.9861 45.881 28.2083C45.3254 28.4306 44.881 28.5417 44.5477 28.5417C44.4366 28.5417 44.2699 28.5139 44.0477 28.4583C44.1866 26.7083 44.256 25.1111 44.256 23.6667C44.256 21.5 44.0199 19.9167 43.5477 18.9167C42.5477 16.75 41.1241 15.0625 39.2768 13.8542C37.4296 12.6458 35.3116 12.0417 32.9227 12.0417C27.4227 12.0417 23.6032 14.3333 21.4643 18.9167C20.9643 19.9722 20.7143 21.5694 20.7143 23.7083C20.7143 24.7639 20.7977 26.3472 20.9643 28.4583C20.6866 28.5139 20.4782 28.5417 20.3393 28.5417C20.0338 28.5417 19.5963 28.4306 19.0268 28.2083C18.4574 27.9861 18.0338 27.875 17.756 27.875C17.2004 27.875 16.6796 28.0486 16.1935 28.3958C15.7074 28.7431 15.4643 29.1944 15.4643 29.75C15.4643 30.3333 15.7352 30.8264 16.2768 31.2292C16.8185 31.6319 17.4088 31.9167 18.0477 32.0833C18.6866 32.25 19.2768 32.4861 19.8185 32.7917C20.3602 33.0972 20.631 33.4583 20.631 33.875C20.631 34.1806 20.5338 34.5278 20.3393 34.9167C18.5616 38.75 15.8116 41.0694 12.0893 41.875C11.4782 42.0139 11.1727 42.3889 11.1727 43C11.1727 44.3056 13.0893 45.2639 16.9227 45.875C16.9782 46.0139 17.0616 46.375 17.1727 46.9583C17.2838 47.5417 17.4366 47.9653 17.631 48.2292C17.8254 48.4931 18.1449 48.625 18.5893 48.625C18.9504 48.625 19.4852 48.5556 20.1935 48.4167C20.9018 48.2778 21.4366 48.2083 21.7977 48.2083C22.7699 48.2083 23.7074 48.4167 24.6102 48.8333C25.5129 49.25 26.2699 49.7014 26.881 50.1875C27.4921 50.6736 28.2907 51.125 29.2768 51.5417C30.2629 51.9583 31.3254 52.1667 32.4643 52.1667C33.6588 52.1667 34.756 51.9583 35.756 51.5417C36.756 51.125 37.5546 50.6736 38.1518 50.1875C38.7491 49.7014 39.4991 49.25 40.4018 48.8333C41.3046 48.4167 42.2421 48.2083 43.2143 48.2083C43.5754 48.2083 44.1171 48.2708 44.8393 48.3958C45.5616 48.5208 46.1032 48.5833 46.4643 48.5833C46.881 48.5833 47.1935 48.4514 47.4018 48.1875C47.6102 47.9236 47.7699 47.4931 47.881 46.8958C47.9921 46.2986 48.0616 45.9583 48.0893 45.875C51.9227 45.2639 53.8393 44.3056 53.8393 43ZM64.506 12.5V52.5C64.506 55.8056 63.3324 58.6319 60.9852 60.9792C58.6379 63.3264 55.8116 64.5 52.506 64.5H12.506C9.20044 64.5 6.37405 63.3264 4.02683 60.9792C1.67961 58.6319 0.505997 55.8056 0.505997 52.5V12.5C0.505997 9.19444 1.67961 6.36806 4.02683 4.02083C6.37405 1.67361 9.20044 0.5 12.506 0.5H52.506C55.8116 0.5 58.6379 1.67361 60.9852 4.02083C63.3324 6.36806 64.506 9.19444 64.506 12.5Z" fill="#221111"/>
</svg>
