<svg width="65" height="64" viewBox="0 0 65 64" fill="none" xmlns="http://www.w3.org/2000/svg">
<path fill-rule="evenodd" clip-rule="evenodd" d="M64.5 32C64.5 49.672 50.172 64 32.5 64C14.828 64 0.5 49.672 0.5 32C0.5 14.328 14.828 0 32.5 0C50.172 0 64.5 14.328 64.5 32ZM33.6467 23.624C30.5347 24.9173 24.3133 27.5973 14.9853 31.6613C13.4707 32.264 12.676 32.8533 12.604 33.4293C12.4813 34.4053 13.7027 34.7893 15.3613 35.3093C15.588 35.3813 15.8227 35.4533 16.0627 35.5333C17.6973 36.064 19.8947 36.6853 21.036 36.7093C22.0733 36.7307 23.2307 36.304 24.508 35.4293C33.2227 29.544 37.7213 26.5707 38.004 26.5067C38.204 26.4613 38.4813 26.4027 38.668 26.5707C38.8547 26.736 38.836 27.0507 38.8173 27.136C38.6947 27.6507 33.9107 32.1013 31.4307 34.4053C30.6573 35.1227 30.1107 35.632 29.9987 35.7493C29.748 36.008 29.492 36.256 29.2467 36.4933C27.7267 37.9547 26.5907 39.0533 29.3107 40.8453C30.6173 41.7067 31.6627 42.4187 32.7053 43.128C33.844 43.904 34.98 44.6773 36.452 45.6427C36.8253 45.888 37.1827 46.1413 37.532 46.3893C38.8573 47.336 40.0493 48.184 41.5213 48.0507C42.3747 47.9707 43.26 47.168 43.708 44.7707C44.7667 39.1013 46.852 26.824 47.3347 21.7627C47.364 21.3424 47.3461 20.9202 47.2813 20.504C47.2425 20.1678 47.0788 19.8585 46.8227 19.6373C46.4413 19.3253 45.8493 19.2587 45.5827 19.264C44.38 19.2853 42.5347 19.928 33.6467 23.624V23.624Z" fill="#221111"/>
</svg>
