<svg width="65" height="64" viewBox="0 0 65 64" fill="none" xmlns="http://www.w3.org/2000/svg">
<path d="M58.5 0H6.5C3.2 0 0.5 2.7 0.5 6V58C0.5 61.3 3.2 64 6.5 64H58.5C61.8 64 64.5 61.3 64.5 58V6C64.5 2.7 61.8 0 58.5 0ZM44.5 10C44.5 8.9 45.4 8 46.5 8H54.5C55.6 8 56.5 8.9 56.5 10V18C56.5 19.1 55.6 20 54.5 20H46.5C45.9699 19.9989 45.4618 19.7879 45.087 19.413C44.7121 19.0382 44.5011 18.5301 44.5 18V10ZM32.5 20C35.629 20.0808 38.6026 21.3805 40.7871 23.6222C42.9716 25.8638 44.1941 28.87 44.1941 32C44.1941 35.13 42.9716 38.1362 40.7871 40.3778C38.6026 42.6195 35.629 43.9192 32.5 44C29.371 43.9192 26.3974 42.6195 24.2129 40.3778C22.0284 38.1362 20.8059 35.13 20.8059 32C20.8059 28.87 22.0284 25.8638 24.2129 23.6222C26.3974 21.3805 29.371 20.0808 32.5 20ZM56.5 54C56.5 55.1 55.6 56 54.5 56H10.5C9.96989 55.9989 9.4618 55.7879 9.08695 55.413C8.71211 55.0382 8.50106 54.5301 8.5 54V28H12.9C12.306 30.9062 12.3661 33.9082 13.0758 36.7884C13.7856 39.6685 15.1272 42.3547 17.0035 44.6522C18.8798 46.9497 21.2437 48.8009 23.924 50.0718C26.6042 51.3427 29.5337 52.0013 32.5 52C35.4663 52.0013 38.3958 51.3427 41.076 50.0718C43.7563 48.8009 46.1202 46.9497 47.9965 44.6522C49.8728 42.3547 51.2144 39.6685 51.9242 36.7884C52.6339 33.9082 52.694 30.9062 52.1 28H56.5V54Z" fill="#221111"/>
</svg>
