<svg width="65" height="64" viewBox="0 0 65 64" fill="none" xmlns="http://www.w3.org/2000/svg">
<path d="M53.8333 20.0833C52.2778 20.7778 50.5972 21.25 48.7917 21.5C50.6806 20.3889 51.9722 18.7639 52.6667 16.625C50.8611 17.6806 49 18.3889 47.0833 18.75C45.3889 16.9167 43.2639 16 40.7083 16C38.2917 16 36.2292 16.8542 34.5208 18.5625C32.8125 20.2708 31.9583 22.3333 31.9583 24.75C31.9583 25.5556 32.0278 26.2222 32.1667 26.75C28.5833 26.5556 25.2222 25.6528 22.0833 24.0417C18.9444 22.4306 16.2778 20.2778 14.0833 17.5833C13.2778 18.9722 12.875 20.4444 12.875 22C12.875 25.1667 14.1389 27.5972 16.6667 29.2917C15.3611 29.2639 13.9722 28.9028 12.5 28.2083V28.2917C12.5 30.375 13.1944 32.2292 14.5833 33.8542C15.9722 35.4792 17.6806 36.4861 19.7083 36.875C18.9028 37.0972 18.1944 37.2083 17.5833 37.2083C17.2222 37.2083 16.6806 37.1528 15.9583 37.0417C16.5417 38.7917 17.5764 40.2361 19.0625 41.375C20.5486 42.5139 22.2361 43.0972 24.125 43.125C20.9028 45.625 17.2778 46.875 13.25 46.875C12.5278 46.875 11.8333 46.8333 11.1667 46.75C15.2778 49.3611 19.75 50.6667 24.5833 50.6667C27.6944 50.6667 30.6111 50.1736 33.3333 49.1875C36.0556 48.2014 38.3889 46.8819 40.3333 45.2292C42.2778 43.5764 43.9514 41.6736 45.3542 39.5208C46.7569 37.3681 47.7986 35.1181 48.4792 32.7708C49.1597 30.4236 49.5 28.0833 49.5 25.75C49.5 25.25 49.4861 24.875 49.4583 24.625C51.2083 23.375 52.6667 21.8611 53.8333 20.0833ZM64.5 12V52C64.5 55.3056 63.3264 58.1319 60.9792 60.4792C58.6319 62.8264 55.8056 64 52.5 64H12.5C9.19444 64 6.36806 62.8264 4.02083 60.4792C1.67361 58.1319 0.5 55.3056 0.5 52V12C0.5 8.69444 1.67361 5.86806 4.02083 3.52083C6.36806 1.17361 9.19444 0 12.5 0H52.5C55.8056 0 58.6319 1.17361 60.9792 3.52083C63.3264 5.86806 64.5 8.69444 64.5 12Z" fill="#221111"/>
</svg>
