<?xml version="1.0" ?><!DOCTYPE svg  PUBLIC '-//W3C//DTD SVG 1.1//EN'  'http://www.w3.org/Graphics/SVG/1.1/DTD/svg11.dtd'><svg id="Layer_1" version="1.1" viewBox="0 0 512 512" xml:space="preserve" xmlns="http://www.w3.org/2000/svg" xmlns:xlink="http://www.w3.org/1999/xlink"><g><path clip-rule="evenodd" d="M418.246,244.36c31.146,0,56.255,25.105,56.255,56.249   c0,31.145-25.108,56.256-56.255,56.256H266.122V162.701c11.497-4.837,24.201-7.556,37.5-7.556   c52.027,0,94.358,40.824,97.389,91.934C406.447,245.268,412.196,244.36,418.246,244.36L418.246,244.36z M512,486.596V25.706   C512,11.491,500.503,0,486.591,0H25.701C11.486,0,0,11.491,0,25.706v460.891C0,500.519,11.486,512,25.701,512h460.89   C500.503,512,512,500.519,512,486.596L512,486.596z M163.308,199.601c3.322,61.996,3.322,95.268,0,157.264h-9.383   c-2.718-53.834-2.718-103.436,0-157.264H163.308z M125.506,217.14h9.372c2.719,48.693,2.719,92.236,0,139.725h-9.372   C122.476,308.771,122.778,265.228,125.506,217.14L125.506,217.14z M68.345,244.36h9.372c2.718,39.008,3.03,71.968,0,110.981h-9.372   C65.617,316.64,65.617,283.076,68.345,244.36L68.345,244.36z M239.515,175.706h9.372c3.333,71.676,3.333,109.791,0,181.159h-9.372   C236.797,295.474,236.797,237.404,239.515,175.706L239.515,175.706z M211.086,205.649h9.372c2.729,51.715,2.729,99.49,0,151.216   h-9.372C207.764,297.291,207.764,265.521,211.086,205.649L211.086,205.649z M182.656,196.574h9.383   c2.718,54.737,2.718,105.539,0,160.291h-9.383C179.335,293.659,179.335,259.786,182.656,196.574L182.656,196.574z M97.077,246.776   h9.372c2.718,38.407,2.718,71.973,0,110.089h-9.372C93.744,313.614,93.744,290.319,97.077,246.776L97.077,246.776z M39.916,260.089   h9.373c3.333,31.754,3.333,48.996,0,80.745h-9.373C36.896,312.111,36.896,288.816,39.916,260.089L39.916,260.089z" fill="#fcc" fill-rule="evenodd"/></g></svg>