<svg width="64" height="64" viewBox="0 0 64 64" fill="none" xmlns="http://www.w3.org/2000/svg">
<g filter="url(#filter0_b_5_19)">
<path d="M54.5244 54.5387H45.0489V39.6871C45.0489 36.1458 44.9778 31.5876 40.1067 31.5876C35.168 31.5876 34.4142 35.4418 34.4142 39.4276V54.5387H24.9351V24H34.0373V28.16H34.1618C35.4347 25.7636 38.528 23.2284 43.1502 23.2284C52.7502 23.2284 54.528 29.5502 54.528 37.7742V54.5387H54.5244ZM14.2329 19.8222C13.5095 19.8232 12.7931 19.6813 12.1247 19.4048C11.4562 19.1283 10.849 18.7226 10.3376 18.211C9.8263 17.6993 9.42099 17.0918 9.14493 16.4232C8.86887 15.7545 8.72748 15.038 8.72889 14.3147C8.72959 13.2261 9.05308 12.1621 9.65846 11.2574C10.2638 10.3527 11.1239 9.64777 12.1299 9.23183C13.1359 8.8159 14.2426 8.70761 15.3102 8.92068C16.3777 9.13374 17.3581 9.65858 18.1273 10.4288C18.8966 11.1991 19.4201 12.1801 19.6318 13.2479C19.8435 14.3157 19.7338 15.4223 19.3166 16.4278C18.8993 17.4333 18.1933 18.2924 17.2878 18.8966C16.3823 19.5008 15.3215 19.8229 14.2329 19.8222ZM18.9831 54.5387H9.47911V24H18.9867V54.5387H18.9831ZM59.2711 0H4.72533C2.10844 0 0 2.06222 0 4.61156V59.3884C0 61.9378 2.112 64 4.72178 64H59.2569C61.8667 64 64 61.9378 64 59.3884V4.61156C64 2.06222 61.8667 0 59.2569 0H59.2711Z" fill="white"/>
</g>
<defs>
<filter id="filter0_b_5_19" x="-8" y="-8" width="80" height="80" filterUnits="userSpaceOnUse" color-interpolation-filters="sRGB">
<feFlood flood-opacity="0" result="BackgroundImageFix"/>
<feGaussianBlur in="BackgroundImageFix" stdDeviation="4"/>
<feComposite in2="SourceAlpha" operator="in" result="effect1_backgroundBlur_5_19"/>
<feBlend mode="normal" in="SourceGraphic" in2="effect1_backgroundBlur_5_19" result="shape"/>
</filter>
</defs>
</svg>
