<?xml version="1.0" ?><svg data-name="Layer 1" id="Layer_1" viewBox="0 0 128 128" xmlns="http://www.w3.org/2000/svg"><title/><path d="M84,36H44a8,8,0,0,0-8,8V84a8,8,0,0,0,8,8H84a8,8,0,0,0,8-8V44A8,8,0,0,0,84,36ZM64,80A16,16,0,1,1,80,64,16,16,0,0,1,64,80ZM82,51a5,5,0,1,1,5-5A5,5,0,0,1,82,51Z"/><circle cx="64" cy="64" r="8"/><path d="M104,0H24A24.07,24.07,0,0,0,0,24v80a24.07,24.07,0,0,0,24,24h80a24.07,24.07,0,0,0,24-24V24A24.07,24.07,0,0,0,104,0Zm-4,84a16,16,0,0,1-16,16H44A16,16,0,0,1,28,84V44A16,16,0,0,1,44,28H84a16,16,0,0,1,16,16Z"/></svg>