<svg width="64" height="64" viewBox="0 0 64 64" fill="none" xmlns="http://www.w3.org/2000/svg">
<path d="M50 48.6667V22H23.3333V20.3333C23.3333 17.576 25.576 15.3333 28.3333 15.3333H33.3333V5.33334H28.3333C24.3566 5.33828 20.5441 6.92021 17.7321 9.73219C14.9202 12.5442 13.3382 16.3566 13.3333 20.3333V22H6.66663V32H13.3333V48.6667H6.66663V58.6667H30V48.6667H23.3333V32H40.0933V48.6667H33.3333V58.6667H56.6666V48.6667H50Z" fill="#F8F8F8"/>
<path d="M45 15.3333C47.7614 15.3333 50 13.0948 50 10.3333C50 7.57191 47.7614 5.33334 45 5.33334C42.2386 5.33334 40 7.57191 40 10.3333C40 13.0948 42.2386 15.3333 45 15.3333Z" fill="#F8F8F8"/>
</svg>
