<svg width="64" height="64" viewBox="0 0 64 64" fill="none" xmlns="http://www.w3.org/2000/svg">
<g clip-path="url(#clip0_553_12)">
<path d="M18.56 0H45.44C55.68 0 64 8.32 64 18.56V45.44C64 50.3624 62.0446 55.0832 58.5639 58.5639C55.0832 62.0446 50.3624 64 45.44 64H18.56C8.32 64 0 55.68 0 45.44V18.56C0 13.6376 1.95542 8.91677 5.4361 5.4361C8.91677 1.95542 13.6376 0 18.56 0ZM17.92 6.4C14.8647 6.4 11.9345 7.61371 9.77413 9.77413C7.61371 11.9345 6.4 14.8647 6.4 17.92V46.08C6.4 52.448 11.552 57.6 17.92 57.6H46.08C49.1353 57.6 52.0655 56.3863 54.2259 54.2259C56.3863 52.0655 57.6 49.1353 57.6 46.08V17.92C57.6 11.552 52.448 6.4 46.08 6.4H17.92ZM48.8 11.2C49.8609 11.2 50.8783 11.6214 51.6284 12.3716C52.3786 13.1217 52.8 14.1391 52.8 15.2C52.8 16.2609 52.3786 17.2783 51.6284 18.0284C50.8783 18.7786 49.8609 19.2 48.8 19.2C47.7391 19.2 46.7217 18.7786 45.9716 18.0284C45.2214 17.2783 44.8 16.2609 44.8 15.2C44.8 14.1391 45.2214 13.1217 45.9716 12.3716C46.7217 11.6214 47.7391 11.2 48.8 11.2ZM32 16C36.2435 16 40.3131 17.6857 43.3137 20.6863C46.3143 23.6869 48 27.7565 48 32C48 36.2435 46.3143 40.3131 43.3137 43.3137C40.3131 46.3143 36.2435 48 32 48C27.7565 48 23.6869 46.3143 20.6863 43.3137C17.6857 40.3131 16 36.2435 16 32C16 27.7565 17.6857 23.6869 20.6863 20.6863C23.6869 17.6857 27.7565 16 32 16ZM32 22.4C29.4539 22.4 27.0121 23.4114 25.2118 25.2118C23.4114 27.0121 22.4 29.4539 22.4 32C22.4 34.5461 23.4114 36.9879 25.2118 38.7882C27.0121 40.5886 29.4539 41.6 32 41.6C34.5461 41.6 36.9879 40.5886 38.7882 38.7882C40.5886 36.9879 41.6 34.5461 41.6 32C41.6 29.4539 40.5886 27.0121 38.7882 25.2118C36.9879 23.4114 34.5461 22.4 32 22.4Z" fill="#F8F8F8"/>
</g>
<defs>
<clipPath id="clip0_553_12">
<rect width="64" height="64" fill="white"/>
</clipPath>
</defs>
</svg>
