<svg width="64" height="64" viewBox="0 0 64 64" fill="none" xmlns="http://www.w3.org/2000/svg">
<path d="M30.72 21.3745V45.0255H56.2036C61.5855 44.6473 64 41.3309 64 37.2582C64 32.9527 60.7418 29.4909 56.3782 29.4909C55.2727 29.4909 54.3418 29.7236 53.3818 30.1309C52.6836 23.3236 46.8945 18 39.7673 18C36.3636 18 33.1345 19.28 30.72 21.3745ZM28.16 24.3418C27.2873 23.8182 26.3564 23.4109 25.3382 23.2073V45.0255H29.3818V22.7418C28.9455 23.2073 28.5382 23.7891 28.16 24.3418ZM21.3236 22.7709V45.0255H24V22.8582C23.4473 22.7709 22.8945 22.7418 22.3127 22.7418C21.9636 22.7418 21.6436 22.7418 21.3236 22.7709ZM16 24.6618V45.0255H18.6473V23.3236C17.6873 23.6436 16.7855 24.1091 16 24.6618ZM11.1418 31.9345C10.9673 31.9345 10.7927 31.76 10.5891 31.6727V45.0255H13.2655V27.1636C12.1891 28.56 11.4618 30.2182 11.1418 31.9345ZM5.20727 31.12V44.7636C5.81818 44.9382 6.51636 45.0255 7.27273 45.0255H7.91273V30.8873C7.68 30.8582 7.44727 30.8291 7.27273 30.8291C6.51636 30.8291 5.81818 30.9455 5.20727 31.12ZM0 37.9273C0 40.1091 0.989091 42.0291 2.53091 43.3382V32.5455C0.989091 33.8255 0 35.7745 0 37.9273Z" fill="#F8F8F8"/>
</svg>
