<svg width="64" height="64" viewBox="0 0 64 64" fill="none" xmlns="http://www.w3.org/2000/svg">
<g clip-path="url(#clip0_553_8)">
<path d="M32 0C14.336 0 0 14.336 0 32C0 49.664 14.336 64 32 64C49.664 64 64 49.664 64 32C64 14.336 49.664 0 32 0ZM46.848 21.76C46.368 26.816 44.288 39.104 43.232 44.768C42.784 47.168 41.888 47.968 41.056 48.064C39.2 48.224 37.792 46.848 36 45.664C33.184 43.808 31.584 42.656 28.864 40.864C25.696 38.784 27.744 37.632 29.568 35.776C30.048 35.296 38.24 27.84 38.4 27.168C38.4222 27.0662 38.4193 26.9606 38.3914 26.8602C38.3635 26.7598 38.3115 26.6677 38.24 26.592C38.048 26.432 37.792 26.496 37.568 26.528C37.28 26.592 32.8 29.568 24.064 35.456C22.784 36.32 21.632 36.768 20.608 36.736C19.456 36.704 17.28 36.096 15.648 35.552C13.632 34.912 12.064 34.56 12.192 33.44C12.256 32.864 13.056 32.288 14.56 31.68C23.904 27.616 30.112 24.928 33.216 23.648C42.112 19.936 43.936 19.296 45.152 19.296C45.408 19.296 46.016 19.36 46.4 19.68C46.72 19.936 46.816 20.288 46.848 20.544C46.816 20.736 46.88 21.312 46.848 21.76Z" fill="#F8F8F8"/>
</g>
<defs>
<clipPath id="clip0_553_8">
<rect width="64" height="64" fill="white"/>
</clipPath>
</defs>
</svg>
