<svg width="64" height="64" viewBox="0 0 64 64" fill="none" xmlns="http://www.w3.org/2000/svg">
<g clip-path="url(#clip0_552_2)">
<path d="M9.14286 0C4.1 0 0 4.1 0 9.14286V54.8571C0 59.9 4.1 64 9.14286 64H54.8571C59.9 64 64 59.9 64 54.8571V9.14286C64 4.1 59.9 0 54.8571 0H9.14286ZM51.5857 12L36.7571 28.9429L54.2 52H40.5429L29.8571 38.0143L17.6143 52H10.8286L26.6857 33.8714L9.95714 12H23.9571L33.6286 24.7857L44.8 12H51.5857ZM46.1857 47.9429L21.9143 15.8429H17.8714L42.4143 47.9429H46.1714H46.1857Z" fill="white"/>
</g>
<defs>
<clipPath id="clip0_552_2">
<rect width="64" height="64" fill="white"/>
</clipPath>
</defs>
</svg>
