<svg width="64" height="64" viewBox="0 0 64 64" fill="none" xmlns="http://www.w3.org/2000/svg">
<path d="M25.6 42L42.208 32.4L25.6 22.8V42ZM62.592 16.944C63.008 18.448 63.296 20.464 63.488 23.024C63.712 25.584 63.808 27.792 63.808 29.712L64 32.4C64 39.408 63.488 44.56 62.592 47.856C61.792 50.736 59.936 52.592 57.056 53.392C55.552 53.808 52.8 54.096 48.576 54.288C44.416 54.512 40.608 54.608 37.088 54.608L32 54.8C18.592 54.8 10.24 54.288 6.944 53.392C4.064 52.592 2.208 50.736 1.408 47.856C0.992 46.352 0.704 44.336 0.512 41.776C0.288 39.216 0.192 37.008 0.192 35.088L0 32.4C0 25.392 0.512 20.24 1.408 16.944C2.208 14.064 4.064 12.208 6.944 11.408C8.448 10.992 11.2 10.704 15.424 10.512C19.584 10.288 23.392 10.192 26.912 10.192L32 10C45.408 10 53.76 10.512 57.056 11.408C59.936 12.208 61.792 14.064 62.592 16.944Z" fill="#F8F8F8"/>
</svg>
