<svg width="65" height="63" viewBox="0 0 65 63" fill="none" xmlns="http://www.w3.org/2000/svg">
<path fill-rule="evenodd" clip-rule="evenodd" d="M32.506 0.289429C14.826 0.289429 0.505997 14.6094 0.505997 32.2894C0.505997 46.4494 9.666 58.4094 22.386 62.6494C23.986 62.9294 24.586 61.9694 24.586 61.1294C24.586 60.3694 24.546 57.8494 24.546 55.1694C16.506 56.6494 14.426 53.2094 13.786 51.4094C13.426 50.4894 11.866 47.6494 10.506 46.8894C9.386 46.2894 7.786 44.8094 10.466 44.7694C12.986 44.7294 14.786 47.0894 15.386 48.0494C18.266 52.8894 22.866 51.5294 24.706 50.6894C24.986 48.6094 25.826 47.2094 26.746 46.4094C19.626 45.6094 12.186 42.8494 12.186 30.6094C12.186 27.1294 13.426 24.2494 15.466 22.0094C15.146 21.2094 14.026 17.9294 15.786 13.5294C15.786 13.5294 18.466 12.6894 24.586 16.8094C27.146 16.0894 29.866 15.7294 32.586 15.7294C35.306 15.7294 38.026 16.0894 40.586 16.8094C46.706 12.6494 49.386 13.5294 49.386 13.5294C51.146 17.9294 50.026 21.2094 49.706 22.0094C51.746 24.2494 52.986 27.0894 52.986 30.6094C52.986 42.8894 45.506 45.6094 38.386 46.4094C39.546 47.4094 40.546 49.3294 40.546 52.3294C40.546 56.6094 40.506 60.0494 40.506 61.1294C40.506 61.9694 41.106 62.9694 42.706 62.6494C49.0585 60.5047 54.5785 56.4219 58.4891 50.9757C62.3997 45.5296 64.5041 38.9942 64.506 32.2894C64.506 14.6094 50.186 0.289429 32.506 0.289429Z" fill="#221111"/>
</svg>
